# xmcd CD database file
#
# Track frame offsets:
#	150
#	18455
#	32725
#
# Disc length: 680 seconds
#
# Revision: 0
# Processed by: cddbd v1.5PL3 Copyright (c) Steve Scherf et al.
# Submitted via: CDex 1.50beta8
#
DISCID=1b02a603
DTITLE=Cornelius - (You can't always get)WHAT YOU WANT
DYEAR=1900
DGENRE=Rock
TTITLE0=ホワット・ユー・ウォント
TTITLE1=ザ・ファースト・クエスチョン・アワード予告編
TTITLE2=ホワット・ユー・ウォント(イントゥルメンタル)
EXTD=
EXTT0=
EXTT1=
EXTT2=
PLAYORDER=
